<svg xmlns="http://www.w3.org/2000/svg" xmlns:xlink="http://www.w3.org/1999/xlink" width="169" height="84" viewBox="0 0 169 84"><defs><path id="fhuxa" d="M662.37 259.72l.6-3.41h-14.63c-1.53 0-3 1.24-3.3 2.78l-5.64 32.25c-.29 1.56.73 2.83 2.28 2.83h15.98l.6-3.4h-13.74l2.54-14.48h11.16l.58-3.36h-11.15l2.31-13.2h12.41"/><path id="fhuxb" d="M669.58 294.73c-6.45 0-10.19-5.83-8.5-15.4 1.7-9.75 7.44-15.36 14-15.36 3.6 0 5.38 1.16 6.16 1.98l-1.64 2.8a5.84 5.84 0 0 0-4.12-1.42c-5.36 0-8.3 4.9-9.51 11.83-1.25 7.1.41 12 5.17 12 2.02 0 3.5-.66 4.73-1.43l.68 3.03c-1.34 1.04-3.69 1.97-6.97 1.97"/><path id="fhuxc" d="M689.88 294.73c-8.04 0-10.37-6.66-8.85-15.35 1.55-8.86 6.25-15.41 14.18-15.41 8.1 0 10.39 6.55 8.83 15.4-1.52 8.7-6.18 15.36-14.16 15.36zm4.84-27.68c-5.63 0-7.83 6.33-8.88 12.33-1.05 6-.9 12 4.62 12 5.63 0 7.73-6.06 8.77-12 1.05-5.94 1.12-12.33-4.5-12.33z"/><path id="fhuxd" d="M740.36 294.73c-7.65 0-10.62-3.35-9.67-8.75 1.38-7.87 9.1-10.18 18.4-11.11l.32-1.82c.8-4.57-1.7-5.89-5.47-5.89-2.84 0-5.65 1.05-7.44 1.88l-.65-2.87c1.86-.93 5.36-2.2 9.41-2.2 5.47 0 9.87 2.37 8.6 9.63l-3.34 19.04c-2.47 1.27-6.05 2.1-10.16 2.1zm8.3-17.39c-7.6.94-12.3 2.53-13.36 8.53-.75 4.3 1.56 6.06 5.94 6.06 1.85 0 3.72-.33 5.04-1z"/><path id="fhuxe" d="M770.8 294.18l3.73-21.3c.49-2.74-.13-5.77-5.16-5.77-2.73 0-4.11.38-5.76 1.04l-4.56 26.03h-4.81l4.93-28.12c2.84-1.26 6.43-2.09 11.13-2.09 8.2 0 9.8 4.57 9.07 8.8l-3.75 21.41h-4.82"/><path id="fhuxf" d="M800.13 301H637.7l.16-.98h162.4l-.13.98"/><path id="fhuxg" d="M721.06 264.14c-2.9 0-4.64.6-6.25 1.37l2.53-14.46-5.3 3.08-6.74 38.51c1.55 1.16 4.44 2.1 8.44 2.1 8.74 0 14.51-6.39 16.18-15.9 1.57-8.98-2.08-14.7-8.86-14.7zm4 14.85c-1.3 7.49-4.6 12.61-10.67 12.61-1.53 0-3.03-.16-4.02-.72l3.97-22.73a9.88 9.88 0 0 1 5.01-1.16c5.57 0 6.85 5.51 5.71 12z"/><path id="fhuxh" d="M804.85 264.52h-5.03l-12.91 13.76h-.11l3.3-18.75c3.26-18.56-16.63-22.47-37.41-19.27a115.23 115.23 0 0 0-26.6 7.85s16.28-5.74 30.62-6.56c18.1-1.04 32.28 1.72 28.14 21.02l-5.54 31.62h4.7l2.68-15.3h.11l8.59 15.3h5.47l-9.6-15.8 13.59-13.87"/><path id="fhuxi" d="M640.37 310.7l-2.07 11.78h-1.71l2.06-11.77h-2.56l.2-1.17h6.84l-.2 1.17h-2.56"/><path id="fhuxj" d="M648.41 322.47l1.26-7.18c.18-1.05-.1-2-1.7-2-.75 0-1.38.13-2.06.5l-1.52 8.68h-1.64l2.59-14.76h1.64l-.9 5.15a5.55 5.55 0 0 1 2.42-.62c2.56 0 3.07 1.56 2.82 2.98l-1.27 7.25h-1.64"/><path id="fhuxk" d="M654.02 318.04c-.22 2.29.65 3.42 2.46 3.42 1.14 0 2-.29 2.58-.59l.25 1.1c-.69.37-1.8.69-3.17.69-2.64 0-4.2-1.67-3.56-5.28.6-3.45 2.6-5.23 4.97-5.23 2.41 0 3.59 1.58 2.96 4.96l-6.5.93zm3.29-4.82c-1.46 0-2.75 1.18-3.2 3.93l4.95-.73c.4-2.3-.32-3.2-1.75-3.2z"/><path id="fhuxl" d="M670.9 317.15l-.58-.05-.94 5.37h-1.68l2.18-12.41a7.39 7.39 0 0 1 3.33-.72c3.03 0 4.1 1.64 3.7 3.92-.4 2.3-2.29 4.27-6.01 3.9zm2.05-6.77c-.68 0-1.21.13-1.5.24l-.94 5.42.55.05c2.66.27 3.87-.97 4.2-2.85.33-1.88-.34-2.86-2.3-2.86z"/><path id="fhuxm" d="M680.14 322.66c-2.6 0-3.62-1.15-3.3-3 .47-2.68 3.11-3.47 6.28-3.79l.12-.62c.27-1.56-.59-2.01-1.87-2.01-.98 0-1.93.36-2.54.64l-.23-.98a7.52 7.52 0 0 1 3.22-.75c1.86 0 3.37.8 2.93 3.29l-1.14 6.5c-.84.44-2.06.72-3.47.72zm2.84-5.94c-2.6.32-4.2.86-4.56 2.91-.27 1.47.53 2.07 2.02 2.07.64 0 1.28-.11 1.73-.34z"/><path id="fhuxn" d="M691.42 322.47l1.27-7.28c.17-.94-.04-1.97-1.76-1.97-.93 0-1.4.13-1.97.36l-1.56 8.9h-1.64l1.68-9.61a9.2 9.2 0 0 1 3.8-.72c2.81 0 3.36 1.56 3.1 3l-1.27 7.32h-1.65"/><path id="fhuxo" d="M708.75 322.48l-.53-3.88h-4.41l-1.93 3.88h-1.57l6.62-12.94h1.53l2.06 12.94h-1.77zm-1.28-9.82c-.13-1.02-.1-1.56-.1-1.56h-.03s-.17.54-.67 1.56l-2.38 4.91h3.81z"/><path id="fhuxp" d="M715.76 313.37l-1.6 9.1h-1.64l1.6-9.1h-1.17l.19-1.03h1.16l.25-1.43c.35-2 1.77-3.3 3.96-3.2l-.19 1.06c-1 .05-1.85.52-2.1 1.96l-.28 1.61h1.76l-.19 1.03h-1.75"/><path id="fhuxq" d="M723.28 313.43a3.08 3.08 0 0 0-2.33.18l-1.56 8.86h-1.64l1.68-9.59c1.08-.5 2.08-.77 4.46-.71l-.61 1.26"/><path id="fhuxr" d="M723.88 322.48l1.78-10.15h1.64l-1.78 10.15h-1.64zm2.94-12.1c-.55 0-.9-.42-.82-.9.1-.51.6-.93 1.14-.93.53 0 .9.42.8.93-.09.48-.6.9-1.12.9z"/><path id="fhuxs" d="M731.46 322.66c-2.2 0-3.48-2-2.9-5.27.58-3.33 2.54-5.24 4.78-5.24 1.24 0 1.84.4 2.1.67l-.55.96a1.97 1.97 0 0 0-1.41-.48c-1.83 0-2.84 1.67-3.25 4.04-.42 2.42.14 4.1 1.77 4.1.69 0 1.2-.23 1.62-.49l.23 1.03c-.46.36-1.26.68-2.39.68"/><path id="fhuxt" d="M738.82 322.66c-2.61 0-3.63-1.15-3.3-3 .47-2.68 3.11-3.47 6.29-3.79l.1-.62c.28-1.56-.58-2.01-1.87-2.01a6.3 6.3 0 0 0-2.53.64l-.23-.98a7.49 7.49 0 0 1 3.22-.75c1.87 0 3.37.8 2.93 3.29l-1.14 6.5c-.84.44-2.06.72-3.47.72zm2.84-5.94c-2.6.32-4.2.86-4.56 2.91-.27 1.47.53 2.07 2.02 2.07a4.1 4.1 0 0 0 1.73-.34z"/><path id="fhuxu" d="M750.1 322.47l1.27-7.28c.17-.94-.04-1.97-1.76-1.97-.94 0-1.41.13-1.97.36l-1.56 8.9h-1.64l1.68-9.61c.98-.44 2.2-.72 3.8-.72 2.8 0 3.36 1.56 3.1 3l-1.28 7.32h-1.64"/><path id="fhuxv" d="M760.17 321.94l2.08-11.88a7.88 7.88 0 0 1 3.47-.72c2.82 0 4.09 1.36 3.76 3.24a3.75 3.75 0 0 1-3.03 3.01v.04c1.15.22 2.75 1.37 2.4 3.34-.46 2.6-2.65 3.69-5.3 3.69a6.75 6.75 0 0 1-3.38-.72zm3.5-5.85h-.86l-.9 5.17c.45.2.97.3 1.76.3 1.68 0 3.11-.68 3.44-2.57.35-2-.66-2.9-3.44-2.9zm1.86-5.75c-.68 0-1.2.1-1.76.28l-.8 4.62h.83c2.65 0 3.7-.83 4-2.52.28-1.59-.52-2.38-2.27-2.38z"/><path id="fhuxw" d="M773.53 322.66c-2.62 0-3.64-1.15-3.31-3 .47-2.68 3.11-3.47 6.29-3.79l.1-.62c.28-1.56-.57-2.01-1.86-2.01a6.4 6.4 0 0 0-2.55.64l-.22-.98a7.5 7.5 0 0 1 3.22-.75c1.87 0 3.37.8 2.93 3.29l-1.13 6.5c-.85.44-2.08.72-3.47.72zm2.83-5.94c-2.6.32-4.2.86-4.57 2.91-.25 1.47.53 2.07 2.03 2.07.64 0 1.27-.11 1.73-.34z"/><path id="fhuxx" d="M785 322.47l1.28-7.28c.16-.94-.05-1.97-1.77-1.97-.94 0-1.4.13-1.97.36l-1.56 8.9h-1.64l1.68-9.61c.98-.44 2.2-.72 3.8-.72 2.8 0 3.36 1.56 3.1 3l-1.28 7.32H785"/><path id="fhuxy" d="M794.47 322.47l-2.93-5.23h-.04l-.91 5.23h-1.61l2.59-14.76h1.6l-1.63 9.33h.03l4.42-4.7h1.71l-4.64 4.73 3.28 5.4h-1.87"/></defs><g><g transform="translate(-636 -239)"><g><use fill="#005a86" xlink:href="#fhuxa"/></g><g><use fill="#005a86" xlink:href="#fhuxb"/></g><g><use fill="#005a86" xlink:href="#fhuxc"/></g><g><use fill="#005a86" xlink:href="#fhuxd"/></g><g><use fill="#005a86" xlink:href="#fhuxe"/></g><g><use fill="#adcd39" xlink:href="#fhuxf"/></g><g><use fill="#005a86" xlink:href="#fhuxg"/></g><g><use fill="#005a86" xlink:href="#fhuxh"/></g><g><use fill="#005a86" xlink:href="#fhuxi"/></g><g><use fill="#005a86" xlink:href="#fhuxj"/></g><g><use fill="#005a86" xlink:href="#fhuxk"/></g><g><use fill="#005a86" xlink:href="#fhuxl"/></g><g><use fill="#005a86" xlink:href="#fhuxm"/></g><g><use fill="#005a86" xlink:href="#fhuxn"/></g><g><use fill="#005a86" xlink:href="#fhuxo"/></g><g><use fill="#005a86" xlink:href="#fhuxp"/></g><g><use fill="#005a86" xlink:href="#fhuxq"/></g><g><use fill="#005a86" xlink:href="#fhuxr"/></g><g><use fill="#005a86" xlink:href="#fhuxs"/></g><g><use fill="#005a86" xlink:href="#fhuxt"/></g><g><use fill="#005a86" xlink:href="#fhuxu"/></g><g><use fill="#005a86" xlink:href="#fhuxv"/></g><g><use fill="#005a86" xlink:href="#fhuxw"/></g><g><use fill="#005a86" xlink:href="#fhuxx"/></g><g><use fill="#005a86" xlink:href="#fhuxy"/></g></g></g></svg>