<?xml version="1.0" encoding="utf-8"?>
<!-- Generator: Adobe Illustrator 22.0.0, SVG Export Plug-In . SVG Version: 6.00 Build 0)  -->
<svg version="1.1" id="Layer_1" xmlns="http://www.w3.org/2000/svg" xmlns:xlink="http://www.w3.org/1999/xlink" x="0px" y="0px"
	 viewBox="0 0 238.3 83.8" style="enable-background:new 0 0 238.3 83.8;" xml:space="preserve">
<style type="text/css">
	.st0{fill:#F9B235;}
	.st1{fill:#FFFFFF;}
</style>
<g id="XMLID_1_">
	<g id="XMLID_3_">
		<g id="XMLID_4_">
			<g>
				<path id="XMLID_60_" class="st0" d="M64.5,20.9C52.1,9.4,32.7,10,21.1,22.4c-3.5,3.8-5.9,8.2-7.2,12.8l2.3,0.5
					c1.2-4.3,3.4-8.3,6.6-11.7c10.6-11.4,28.6-12,40-1.4c6.5,6.1,9.5,14.6,8.9,22.9c0,0.3-0.1,0.7-0.1,1c-0.1,0.6-0.2,1.3-0.3,1.9
					l2,1.9c0.1-0.6,0.3-1.2,0.4-1.8c0.1-0.3,0.1-0.6,0.1-1C75.3,38,72.1,28,64.5,20.9z M56.7,68.4c-10.3,5.4-23.4,4-32.4-4.4
					c-2.8-2.6-4.9-5.6-6.4-8.8l-2.2,0.9c1.6,3.5,3.9,6.8,7,9.6c9.8,9.1,24,10.6,35.3,4.7L56.7,68.4z M66.7,59.7
					c-0.7,1-1.5,2-2.4,2.9c-1.9,2.1-4.1,3.8-6.5,5.2l1.2,2.1c2.5-1.5,4.9-3.3,7-5.6c0.9-0.9,1.7-1.9,2.4-2.9L66.7,59.7z"/>
			</g>
		</g>
		<g id="XMLID_5_">
			<g>
				<path id="XMLID_56_" class="st0" d="M53.6,63.1c-9.1,4.6-20.5,2.5-27.3-5.8c-7.7-9.5-6.3-23.5,3.2-31.2c2.2-1.8,4.7-3.1,7.2-3.9
					l-0.6-2.3c-2.9,0.9-5.7,2.4-8.1,4.4C17.6,32.8,16,48.4,24.5,58.9C32,68,44.7,70.4,54.8,65.2L53.6,63.1z M62.6,27.8
					c-2.5-3.1-5.7-5.5-9.2-7l-0.8,2.2c3.1,1.4,5.9,3.5,8.2,6.2c5.2,6.4,6.3,14.9,3.4,22.2l2.2,1C69.6,44.5,68.5,35,62.6,27.8z
					 M57.6,60.5c-0.9,0.7-1.9,1.4-2.9,2l1.2,2.1c1.1-0.6,2.1-1.4,3.2-2.2c3-2.4,5.3-5.4,6.8-8.7l-2.2-1
					C62.4,55.6,60.3,58.3,57.6,60.5z"/>
			</g>
		</g>
		<g id="XMLID_7_">
			<g>
				<path id="XMLID_38_" class="st0" d="M43.6,25.7c-9.7,0-17.6,7.9-17.6,17.6c0,9.7,7.9,17.6,17.6,17.6c2.8,0,5.4-0.6,7.7-1.8
					l-1.2-2.1c-2,0.9-4.2,1.4-6.5,1.4c-8.4,0-15.2-6.8-15.2-15.2c0-8.4,6.8-15.2,15.2-15.2c8.4,0,15.2,6.8,15.2,15.2
					c0,1.8-0.3,3.5-0.9,5.2l2.2,1c0.7-1.9,1.1-4,1.1-6.2C61.2,33.6,53.3,25.7,43.6,25.7z"/>
			</g>
		</g>
		<g id="XMLID_8_">
			<g>
				<path id="XMLID_36_" class="st0" d="M43.6,32c-6.2,0-11.3,5.1-11.3,11.3c0,6.2,5.1,11.3,11.3,11.3c1.6,0,3.1-0.3,4.5-0.9
					l-1.2-2.1c-1,0.4-2.1,0.6-3.3,0.6c-4.9,0-8.9-4-8.9-8.9c0-4.9,4-8.9,8.9-8.9c4.9,0,8.9,4,8.9,8.9c0,0.9-0.1,1.7-0.4,2.5l2.2,1
					c0.4-1.1,0.6-2.3,0.6-3.5C54.9,37.1,49.8,32,43.6,32z"/>
			</g>
		</g>
		<g id="XMLID_9_">
			<path id="XMLID_35_" class="st0" d="M74.2,57.5c-2.9,6.3-7.7,11.5-13.7,15L59,69.9l-1.2-2.1L56,64.6l-1.2-2.1L43.6,43.3l20.1,9.3
				l2.2,1L74.2,57.5z"/>
		</g>
	</g>
	<g id="XMLID_91_">
		<path id="XMLID_92_" class="st1" d="M90.9,56.6h-3.8v-26h18.3v3.8H90.9v7.9c1.6-0.9,3.2-1,4.9-1h5.7v3.9h-5.7
			c-1.7,0-3.3,0.2-4.9,1V56.6z"/>
		<path id="XMLID_94_" class="st1" d="M109.8,56.6V36.4h2.9v20.2H109.8z"/>
		<path id="XMLID_96_" class="st1" d="M116.3,36.4h3.8l13,15.4V36.4h3v20.2h-2.9l-11.6-13.9v13.9h-2.9V39.2L116.3,36.4z"/>
		<path id="XMLID_98_" class="st1" d="M144.4,53.6h12.4v2.9h-15.4V36.4h14.2v3h-11.3v6.1c1.2-0.7,2.5-0.8,3.8-0.8h4.4v3h-4.4
			c-1.3,0-2.6,0.1-3.8,0.8V53.6z"/>
		<path id="XMLID_100_" class="st1" d="M175.5,56.6l-6.2-8.5l-6.4,8.5h-3.8l8.3-11l-6.7-9.2h3.6l5,6.7l5.1-6.7h3.7l-6.8,9.2l8.1,11
			H175.5z"/>
		<path id="XMLID_102_" class="st1" d="M190.2,39.4v17.2h-2.9V39.4h-7.2v-3h17.2v3H190.2z"/>
		<path id="XMLID_104_" class="st1" d="M208.1,30.1h4.2l12.5,26.5h-4.3l-1.7-3.8h-7.9c-4.7,0-7.3,1.5-7.9,2.6l-0.7,1.2h-4.1
			l11.3-23.2L208.1,30.1z M217.1,48.9l-5.7-11l-5.8,12.4c0.9-0.8,3.1-1.5,6.6-1.5H217.1z"/>
	</g>
</g>
</svg>
