<svg id="svg" version="1.1" xmlns="http://www.w3.org/2000/svg" xmlns:xlink="http://www.w3.org/1999/xlink" width="150" height="150" viewBox="0, 0, 400,400"><g id="svgg"><path id="path0" d="M324.857 67.500 C 324.399 67.885,321.114 73.420,317.555 79.800 C 307.744 97.391,307.858 97.171,308.466 97.403 C 308.760 97.515,322.767 97.560,339.594 97.503 L 370.188 97.400 374.421 89.800 C 376.749 85.620,380.468 78.960,382.685 75.000 C 385.600 69.794,386.604 67.662,386.309 67.300 C 385.573 66.397,325.937 66.591,324.857 67.500 M300.893 113.300 C 300.547 113.728,293.016 127.145,282.201 146.600 C 278.827 152.670,279.421 151.607,268.798 170.600 C 264.245 178.740,258.213 189.540,255.393 194.600 C 252.573 199.660,244.806 213.579,238.133 225.532 C 231.460 237.485,226.000 247.520,226.000 247.832 C 226.000 248.635,287.260 248.692,287.926 247.889 C 288.159 247.608,289.598 245.133,291.123 242.389 C 292.649 239.645,295.564 234.430,297.602 230.800 C 299.640 227.170,302.608 221.860,304.198 219.000 C 307.041 213.887,317.520 195.111,327.192 177.800 C 329.896 172.960,332.960 167.470,334.001 165.600 C 335.042 163.730,337.561 159.230,339.600 155.600 C 341.638 151.970,345.058 145.850,347.198 142.000 C 349.339 138.150,353.725 130.286,356.945 124.524 C 360.165 118.761,362.800 113.766,362.800 113.424 C 362.800 112.581,301.574 112.458,300.893 113.300 M102.535 301.273 C 101.166 301.935,101.188 302.153,104.266 319.000 C 108.070 339.817,108.863 341.379,114.942 340.013 C 117.701 339.393,118.833 337.834,120.443 332.439 L 120.969 330.677 121.616 333.239 C 122.936 338.458,124.423 340.074,127.941 340.116 C 133.177 340.179,133.471 339.541,137.535 319.298 L 140.949 302.288 140.030 301.544 C 139.525 301.135,138.605 300.800,137.987 300.800 C 136.518 300.800,136.665 300.278,132.975 318.600 C 128.062 342.996,128.093 343.032,121.312 305.400 C 120.537 301.104,120.189 300.601,118.240 300.966 C 116.006 301.385,115.947 301.883,117.258 309.202 C 118.632 316.871,118.615 317.320,116.610 326.792 C 114.977 334.505,114.728 335.200,113.595 335.200 C 112.177 335.200,111.710 333.515,108.831 318.000 C 105.356 299.280,105.556 299.811,102.535 301.273 M152.600 301.340 C 149.160 302.470,147.235 304.003,145.746 306.800 C 144.502 309.136,144.618 331.886,145.886 334.257 C 149.330 340.696,160.810 342.091,165.132 336.595 C 167.272 333.875,165.655 331.254,162.773 332.772 C 161.908 333.227,160.440 333.999,159.511 334.486 C 155.003 336.850,150.355 334.624,149.573 329.725 C 149.227 327.553,149.464 326.000,150.143 326.000 C 155.778 325.996,165.985 314.796,166.131 308.457 C 166.261 302.786,159.317 299.133,152.600 301.340 M159.651 306.441 C 161.131 307.181,161.600 307.857,161.600 309.249 C 161.600 312.337,153.668 320.246,150.891 319.926 L 149.800 319.800 149.695 314.800 C 149.521 306.500,153.345 303.288,159.651 306.441 " stroke="none" fill="#fcb406" fill-rule="evenodd"></path><path id="path1" d="M14.000 67.627 C 14.000 68.016,20.336 79.507,35.488 106.600 C 43.094 120.201,61.378 152.972,66.286 161.800 C 68.487 165.760,72.858 173.590,75.999 179.200 C 79.139 184.810,83.010 191.740,84.601 194.600 C 86.191 197.460,90.908 205.920,95.083 213.400 C 99.258 220.880,104.973 231.140,107.782 236.200 C 110.591 241.260,113.322 246.075,113.850 246.900 L 114.811 248.400 136.506 248.394 C 148.438 248.391,158.397 248.256,158.637 248.094 C 159.054 247.814,164.554 238.076,182.186 206.400 C 186.534 198.590,191.663 189.410,193.584 186.000 C 195.506 182.590,198.192 177.792,199.553 175.337 C 200.914 172.883,202.280 170.666,202.587 170.410 C 203.253 169.858,203.182 169.756,207.221 177.000 C 208.816 179.860,210.523 182.920,211.015 183.800 C 211.507 184.680,213.261 187.830,214.913 190.800 C 226.142 210.989,228.249 214.600,228.798 214.600 C 229.170 214.600,232.810 208.478,238.429 198.400 C 243.397 189.490,250.193 177.307,253.531 171.326 C 260.137 159.488,259.981 159.898,258.745 157.712 C 258.275 156.880,253.529 148.370,248.199 138.800 C 237.941 120.382,217.409 83.595,212.701 75.200 C 211.159 72.450,209.467 69.525,208.943 68.700 L 207.989 67.200 202.813 67.200 L 197.638 67.200 196.219 69.621 C 195.439 70.953,194.800 72.109,194.800 72.190 C 194.800 72.271,193.837 74.016,192.661 76.068 C 191.484 78.121,189.981 80.790,189.321 82.000 C 187.869 84.660,173.371 110.648,149.601 153.200 C 145.361 160.790,140.818 168.944,139.506 171.320 C 138.194 173.696,136.913 175.572,136.660 175.489 C 136.215 175.343,132.936 169.566,112.206 132.400 C 106.868 122.830,99.485 109.600,95.799 103.000 C 92.113 96.400,86.303 85.960,82.887 79.800 C 79.471 73.640,76.407 68.285,76.076 67.900 C 75.352 67.055,14.000 66.785,14.000 67.627 M248.700 277.632 C 248.060 278.005,248.000 278.983,248.000 288.987 C 248.000 301.333,248.052 300.990,246.065 301.640 C 238.857 303.994,233.450 310.283,232.402 317.531 C 230.794 328.645,233.425 336.938,239.339 339.402 C 242.001 340.511,249.957 340.703,251.200 339.687 L 252.200 338.871 252.310 308.674 C 252.409 281.466,252.356 278.413,251.781 277.838 C 251.059 277.116,249.738 277.027,248.700 277.632 M187.197 284.350 C 183.966 285.410,181.053 288.170,180.523 290.676 C 179.950 293.382,180.124 332.786,180.716 334.455 C 183.475 342.232,196.876 342.312,199.833 334.570 C 201.350 330.596,197.778 329.060,195.622 332.758 C 193.024 337.212,187.283 337.673,185.127 333.600 C 184.429 332.282,184.392 331.008,184.493 311.800 L 184.600 291.400 185.569 290.108 C 188.119 286.709,193.410 287.516,195.507 291.623 C 197.615 295.754,201.565 293.964,199.779 289.687 C 198.025 285.489,191.790 282.844,187.197 284.350 M257.800 284.280 C 255.973 284.708,256.000 284.289,256.000 312.427 C 256.000 334.577,256.093 339.180,256.550 339.559 C 256.936 339.879,259.837 339.983,266.250 339.908 L 275.400 339.800 275.338 338.474 C 275.215 335.830,274.612 335.600,267.818 335.600 C 263.640 335.600,261.611 335.451,261.280 335.120 C 260.928 334.768,260.800 331.461,260.800 322.734 C 260.800 308.857,260.354 310.000,265.764 310.000 C 269.584 310.000,270.603 309.314,270.329 306.926 L 270.200 305.800 265.918 305.600 C 260.405 305.343,260.762 305.969,260.891 296.771 L 261.000 289.000 267.668 288.800 C 271.335 288.690,274.416 288.510,274.514 288.400 C 275.661 287.110,275.933 284.613,274.967 284.243 C 274.241 283.964,259.008 283.997,257.800 284.280 M211.800 301.360 C 208.274 302.475,206.136 304.217,205.021 306.887 C 204.289 308.640,204.098 331.151,204.794 333.580 C 207.259 342.174,223.832 342.418,227.380 333.913 C 228.544 331.121,228.269 309.194,227.036 306.547 C 224.945 302.055,217.555 299.539,211.800 301.360 M287.800 301.149 C 280.508 303.054,279.513 305.526,279.678 321.325 L 279.800 333.000 280.877 334.831 C 284.411 340.844,295.799 341.849,299.993 336.519 C 302.740 333.026,300.298 331.309,295.869 333.620 C 289.643 336.869,285.071 335.337,284.170 329.700 C 283.736 326.989,284.115 326.260,286.387 325.444 C 296.209 321.912,304.042 309.320,299.579 304.237 C 297.116 301.432,291.926 300.071,287.800 301.149 M220.726 306.283 C 223.305 308.205,223.400 308.715,223.400 320.600 C 223.400 331.236,223.386 331.423,222.461 332.910 C 219.956 336.939,212.551 336.935,209.811 332.903 L 208.800 331.414 208.800 320.687 C 208.800 308.277,209.087 307.196,212.800 305.625 C 214.441 304.930,219.472 305.348,220.726 306.283 M293.669 305.990 C 294.535 306.021,296.400 308.184,296.400 309.157 C 296.400 313.480,285.644 322.272,284.390 318.974 C 281.792 312.140,286.234 304.372,292.000 305.667 C 292.770 305.839,293.521 305.985,293.669 305.990 M247.586 306.774 C 247.847 307.262,248.000 312.427,248.000 320.792 L 248.000 334.036 247.018 335.018 C 241.442 340.595,234.031 328.187,236.552 317.496 C 238.207 310.481,245.682 303.216,247.586 306.774 " stroke="none" fill="#186e85" fill-rule="evenodd"></path><path id="path2" d="M25.600 0.270 C 25.050 0.360,24.240 0.592,23.800 0.786 C 23.360 0.979,22.460 1.252,21.800 1.391 C 20.246 1.719,18.400 2.520,18.400 2.866 C 18.400 3.015,17.879 3.251,17.241 3.391 C 16.604 3.531,15.766 3.995,15.379 4.423 C 14.993 4.850,14.428 5.200,14.125 5.200 C 13.823 5.200,13.471 5.470,13.345 5.800 C 13.218 6.130,12.892 6.400,12.620 6.400 C 11.963 6.400,7.200 11.064,7.200 11.707 C 7.200 11.984,6.750 12.548,6.200 12.961 C 5.650 13.374,5.200 14.047,5.200 14.456 C 5.200 14.865,5.048 15.200,4.863 15.200 C 4.678 15.200,4.183 15.875,3.763 16.700 C 3.343 17.525,2.910 18.290,2.800 18.400 C 2.253 18.947,1.625 20.462,1.370 21.851 C 1.213 22.703,0.886 23.528,0.642 23.685 C -0.006 24.104,0.012 375.913,0.661 376.315 C 0.914 376.472,1.250 377.455,1.406 378.500 C 1.563 379.545,1.850 380.400,2.045 380.400 C 2.240 380.400,2.400 380.670,2.400 381.000 C 2.400 381.330,2.566 381.600,2.768 381.600 C 2.971 381.600,3.259 382.160,3.410 382.844 C 3.673 384.041,4.202 384.877,5.700 386.460 C 6.085 386.867,6.400 387.378,6.400 387.595 C 6.400 388.241,12.059 393.600,12.740 393.600 C 12.946 393.600,13.218 393.870,13.345 394.200 C 13.471 394.530,13.858 394.800,14.204 394.800 C 14.550 394.800,15.227 395.167,15.709 395.615 C 16.190 396.064,16.993 396.534,17.492 396.659 C 17.991 396.784,18.400 397.047,18.400 397.243 C 18.400 397.440,18.670 397.600,19.000 397.600 C 19.330 397.600,19.600 397.757,19.600 397.949 C 19.600 398.141,20.360 398.419,21.288 398.568 C 22.216 398.716,23.110 399.054,23.273 399.319 C 23.707 400.021,376.293 400.021,376.727 399.319 C 376.890 399.054,377.784 398.716,378.712 398.568 C 379.640 398.419,380.400 398.141,380.400 397.949 C 380.400 397.757,380.670 397.600,381.000 397.600 C 381.330 397.600,381.600 397.440,381.600 397.243 C 381.600 397.047,382.050 396.774,382.600 396.636 C 383.150 396.498,383.600 396.208,383.600 395.992 C 383.600 395.777,383.870 395.600,384.200 395.600 C 384.530 395.600,384.800 395.420,384.800 395.200 C 384.800 394.980,385.166 394.800,385.613 394.800 C 386.059 394.800,386.529 394.530,386.655 394.200 C 386.782 393.870,387.054 393.600,387.260 393.600 C 388.043 393.600,393.600 388.199,393.600 387.438 C 393.600 387.134,393.870 386.782,394.200 386.655 C 394.530 386.529,394.800 386.160,394.800 385.835 C 394.800 385.511,395.136 385.010,395.546 384.723 C 395.957 384.435,396.421 383.615,396.578 382.900 C 396.735 382.185,397.029 381.600,397.232 381.600 C 397.434 381.600,397.600 381.330,397.600 381.000 C 397.600 380.670,397.760 380.400,397.955 380.400 C 398.150 380.400,398.437 379.545,398.594 378.500 C 398.750 377.455,399.086 376.472,399.339 376.315 C 400.005 375.902,400.005 24.098,399.339 23.685 C 399.086 23.528,398.750 22.545,398.594 21.500 C 398.437 20.455,398.150 19.600,397.955 19.600 C 397.760 19.600,397.600 19.330,397.600 19.000 C 397.600 18.670,397.440 18.400,397.243 18.400 C 397.047 18.400,396.784 17.991,396.659 17.492 C 396.534 16.993,396.064 16.190,395.615 15.709 C 395.167 15.227,394.800 14.581,394.800 14.273 C 394.800 13.964,394.350 13.374,393.800 12.961 C 393.250 12.548,392.800 11.984,392.800 11.707 C 392.800 11.064,388.037 6.400,387.380 6.400 C 387.108 6.400,386.782 6.130,386.655 5.800 C 386.529 5.470,386.177 5.200,385.875 5.200 C 385.572 5.200,385.007 4.850,384.621 4.423 C 384.234 3.995,383.396 3.531,382.759 3.391 C 382.121 3.251,381.600 2.971,381.600 2.768 C 381.600 2.566,381.330 2.400,381.000 2.400 C 380.670 2.400,380.400 2.240,380.400 2.045 C 380.400 1.850,379.545 1.564,378.500 1.408 C 377.455 1.252,376.347 0.917,376.039 0.663 C 375.502 0.220,28.281 -0.169,25.600 0.270 M386.309 67.300 C 386.604 67.662,385.600 69.794,382.685 75.000 C 380.468 78.960,376.749 85.620,374.421 89.800 L 370.188 97.400 339.594 97.503 C 322.767 97.560,308.760 97.515,308.466 97.403 C 307.858 97.171,307.744 97.391,317.555 79.800 C 321.114 73.420,324.399 67.885,324.857 67.500 C 325.937 66.591,385.573 66.397,386.309 67.300 M76.076 67.900 C 76.407 68.285,79.471 73.640,82.887 79.800 C 86.303 85.960,92.113 96.400,95.799 103.000 C 99.485 109.600,106.868 122.830,112.206 132.400 C 132.936 169.566,136.215 175.343,136.660 175.489 C 136.913 175.572,138.194 173.696,139.506 171.320 C 140.818 168.944,145.361 160.790,149.601 153.200 C 173.371 110.648,187.869 84.660,189.321 82.000 C 189.981 80.790,191.484 78.121,192.661 76.068 C 193.837 74.016,194.800 72.271,194.800 72.190 C 194.800 72.109,195.439 70.953,196.219 69.621 L 197.638 67.200 202.813 67.200 L 207.989 67.200 208.943 68.700 C 209.467 69.525,211.159 72.450,212.701 75.200 C 217.409 83.595,237.941 120.382,248.199 138.800 C 253.529 148.370,258.275 156.880,258.745 157.712 C 259.981 159.898,260.137 159.488,253.531 171.326 C 250.193 177.307,243.397 189.490,238.429 198.400 C 232.810 208.478,229.170 214.600,228.798 214.600 C 228.249 214.600,226.142 210.989,214.913 190.800 C 213.261 187.830,211.507 184.680,211.015 183.800 C 210.523 182.920,208.816 179.860,207.221 177.000 C 203.182 169.756,203.253 169.858,202.587 170.410 C 202.280 170.666,200.914 172.883,199.553 175.337 C 198.192 177.792,195.506 182.590,193.584 186.000 C 191.663 189.410,186.534 198.590,182.186 206.400 C 164.554 238.076,159.054 247.814,158.637 248.094 C 158.397 248.256,148.438 248.391,136.506 248.394 L 114.811 248.400 113.850 246.900 C 113.322 246.075,110.591 241.260,107.782 236.200 C 104.973 231.140,99.258 220.880,95.083 213.400 C 90.908 205.920,86.191 197.460,84.601 194.600 C 83.010 191.740,79.139 184.810,75.999 179.200 C 72.858 173.590,68.487 165.760,66.286 161.800 C 61.378 152.972,43.094 120.201,35.488 106.600 C 20.336 79.507,14.000 68.016,14.000 67.627 C 14.000 66.785,75.352 67.055,76.076 67.900 M362.800 113.424 C 362.800 113.766,360.165 118.761,356.945 124.524 C 353.725 130.286,349.339 138.150,347.198 142.000 C 345.058 145.850,341.638 151.970,339.600 155.600 C 337.561 159.230,335.042 163.730,334.001 165.600 C 332.960 167.470,329.896 172.960,327.192 177.800 C 317.520 195.111,307.041 213.887,304.198 219.000 C 302.608 221.860,299.640 227.170,297.602 230.800 C 295.564 234.430,292.649 239.645,291.123 242.389 C 289.598 245.133,288.159 247.608,287.926 247.889 C 287.260 248.692,226.000 248.635,226.000 247.832 C 226.000 247.520,231.460 237.485,238.133 225.532 C 244.806 213.579,252.573 199.660,255.393 194.600 C 258.213 189.540,264.245 178.740,268.798 170.600 C 279.421 151.607,278.827 152.670,282.201 146.600 C 293.016 127.145,300.547 113.728,300.893 113.300 C 301.574 112.458,362.800 112.581,362.800 113.424 M251.781 277.838 C 252.356 278.413,252.409 281.466,252.310 308.674 L 252.200 338.871 251.200 339.687 C 249.957 340.703,242.001 340.511,239.339 339.402 C 233.425 336.938,230.794 328.645,232.402 317.531 C 233.450 310.283,238.857 303.994,246.065 301.640 C 248.052 300.990,248.000 301.333,248.000 288.987 C 248.000 278.983,248.060 278.005,248.700 277.632 C 249.738 277.027,251.059 277.116,251.781 277.838 M195.400 285.100 C 199.379 287.156,201.684 291.940,199.413 293.428 C 197.949 294.387,196.599 293.764,195.507 291.623 C 193.410 287.516,188.119 286.709,185.569 290.108 L 184.600 291.400 184.493 311.800 C 184.392 331.008,184.429 332.282,185.127 333.600 C 187.283 337.673,193.024 337.212,195.622 332.758 C 197.778 329.060,201.350 330.596,199.833 334.570 C 196.876 342.312,183.475 342.232,180.716 334.455 C 180.124 332.786,179.950 293.382,180.523 290.676 C 181.640 285.397,189.948 282.284,195.400 285.100 M274.967 284.243 C 275.933 284.613,275.661 287.110,274.514 288.400 C 274.416 288.510,271.335 288.690,267.668 288.800 L 261.000 289.000 260.891 296.771 C 260.762 305.969,260.405 305.343,265.918 305.600 L 270.200 305.800 270.329 306.926 C 270.603 309.314,269.584 310.000,265.764 310.000 C 260.354 310.000,260.800 308.857,260.800 322.734 C 260.800 331.461,260.928 334.768,261.280 335.120 C 261.611 335.451,263.640 335.600,267.818 335.600 C 274.612 335.600,275.215 335.830,275.338 338.474 L 275.400 339.800 266.250 339.908 C 259.837 339.983,256.936 339.879,256.550 339.559 C 255.775 338.916,255.727 286.104,256.500 285.110 C 257.261 284.132,272.779 283.403,274.967 284.243 M105.595 301.700 C 105.803 302.195,107.259 309.530,108.831 318.000 C 111.710 333.515,112.177 335.200,113.595 335.200 C 114.728 335.200,114.977 334.505,116.610 326.792 C 118.615 317.320,118.632 316.871,117.258 309.202 C 115.947 301.883,116.006 301.385,118.240 300.966 C 120.189 300.601,120.537 301.104,121.312 305.400 C 126.120 332.084,126.835 335.200,128.147 335.200 C 129.464 335.200,130.009 333.326,132.975 318.600 C 136.665 300.278,136.518 300.800,137.987 300.800 C 138.605 300.800,139.525 301.135,140.030 301.544 L 140.949 302.288 137.535 319.298 C 133.471 339.541,133.177 340.179,127.941 340.116 C 124.423 340.074,122.936 338.458,121.616 333.239 L 120.969 330.677 120.443 332.439 C 118.833 337.834,117.701 339.393,114.942 340.013 C 111.788 340.721,109.145 339.405,107.846 336.478 C 107.097 334.793,101.256 303.345,101.506 302.346 C 101.893 300.797,105.009 300.305,105.595 301.700 M162.126 301.955 C 168.896 305.266,166.807 314.745,157.712 321.986 C 155.795 323.513,151.106 325.999,150.143 326.000 C 149.464 326.000,149.227 327.553,149.573 329.725 C 150.355 334.624,155.003 336.850,159.511 334.486 C 160.440 333.999,161.908 333.227,162.773 332.772 C 165.655 331.254,167.272 333.875,165.132 336.595 C 160.810 342.091,149.330 340.696,145.886 334.257 C 144.618 331.886,144.502 309.136,145.746 306.800 C 148.591 301.458,156.393 299.151,162.126 301.955 M220.416 301.442 C 227.351 303.501,227.991 305.111,227.996 320.513 C 228.000 333.657,227.917 334.192,225.480 336.735 C 219.856 342.602,206.811 340.612,204.794 333.580 C 204.098 331.151,204.289 308.640,205.021 306.887 C 207.069 301.985,213.995 299.535,220.416 301.442 M296.638 301.910 C 297.539 302.374,298.862 303.421,299.579 304.237 C 304.042 309.320,296.209 321.912,286.387 325.444 C 284.115 326.260,283.736 326.989,284.170 329.700 C 285.071 335.337,289.643 336.869,295.869 333.620 C 300.298 331.309,302.740 333.026,299.993 336.519 C 295.799 341.849,284.411 340.844,280.877 334.831 L 279.800 333.000 279.678 321.325 C 279.540 308.108,279.672 307.172,282.041 304.602 C 285.442 300.912,292.256 299.656,296.638 301.910 M154.510 305.604 C 150.556 306.495,149.561 308.395,149.695 314.800 L 149.800 319.800 150.891 319.926 C 153.668 320.246,161.600 312.337,161.600 309.249 C 161.600 306.760,157.876 304.846,154.510 305.604 M212.800 305.625 C 209.087 307.196,208.800 308.277,208.800 320.687 L 208.800 331.414 209.811 332.903 C 212.551 336.935,219.956 336.939,222.461 332.910 C 223.819 330.726,223.933 310.704,222.600 308.442 C 220.983 305.696,216.010 304.267,212.800 305.625 M288.969 305.686 C 284.996 306.499,282.453 313.879,284.390 318.974 C 285.644 322.272,296.400 313.480,296.400 309.157 C 296.400 308.184,294.535 306.021,293.669 305.990 C 293.521 305.985,292.770 305.839,292.000 305.667 C 291.230 305.494,289.866 305.502,288.969 305.686 M244.059 306.748 C 237.297 310.352,234.278 320.357,237.162 329.606 C 238.795 334.845,244.215 337.821,247.018 335.018 L 248.000 334.036 248.000 320.792 C 248.000 305.046,247.903 304.700,244.059 306.748 " stroke="none" fill="#ffffff" fill-rule="evenodd"></path></g></svg>